{"title":"Full Metal Panic! Complete Season 1 (EngDub) 720p x264 Download","magnet":"magnet:?xt=urn:btih:6de2e62a725bd5f532742454613672dbd6050eaf&dn=Full+Metal+Panic%21+Complete+Season+1+%28EngDub%29+720p+x264+Download&tr=udp%3A%2F%2Ftracker.leechers-paradise.org%3A6969&tr=udp%3A%2F%2Fzer0day.ch%3A1337&tr=udp%3A%2F%2Fopen.demonii.com%3A1337&tr=udp%3A%2F%2Ftracker.coppersurfer.tk%3A6969&tr=udp%3A%2F%2Fexodus.desync.com%3A6969","uploader":"digimaza","categoryP":"video","categoryS":"tv_shows","size":"5643513971","seeders":"4","leechers":"18","description":"Full Metal Panic! Complete Season 1 (EngDub) Download <a href=\"\nhttp://i.imgur.com/s8GnbFd.jpg\" rel=\"nofollow\" target=\"_NEW\">\nhttp://i.imgur.com/s8GnbFd.jpg</a>\r\n\r\n..::File Specs::.. \r\nGeneral \r\n\r\nFormat                                   : Matroska \r\nFormat version                           : Version 4 / Version 2 \r\nFile size                                : 222 MiB \r\nDuration                                 : 22 min 49 s \r\nOverall bit rate                         : 1 361 kb/s \r\n\r\nVideo \r\nID                                       : 1 \r\nFormat                                   : AVC \r\nFormat/Info                              : Advanced Video Codec \r\nFormat profile                           : <a class=\"__cf_email__\" href=\"/cdn-cgi/l/email-protection\" data-cfemail=\"92dafbf5fad2dea1bca3\">[email&#xA0;protected]</a><script data-cfhash=\"f9e31\" type=\"text/javascript\">/* <![CDATA[ */!function(t,e,r,n,c,a,p){try{t=document.currentScript||function(){for(t=document.getElementsByTagName('script'),e=t.length;e--;)if(t[e].getAttribute('data-cfhash'))return t[e]}();if(t&&(c=t.previousSibling)){p=t.parentNode;if(a=c.getAttribute('data-cfemail')){for(e='',r='0x'+a.substr(0,2)|0,n=2;a.length-n;n+=2)e+='%'+('0'+('0x'+a.substr(n,2)^r).toString(16)).slice(-2);p.replaceChild(document.createTextNode(decodeURIComponent(e)),c)}p.removeChild(t)}}catch(u){}}()/* ]]> */</script> \r\nFormat settings, CABAC                   : Yes \r\nFormat settings, ReFrames                : 2 frames \r\nCodec ID                                 : V_MPEG4/ISO/AVC \r\nDuration                                 : 22 min 49 s \r\nBit rate                                 : 1 152 kb/s \r\nWidth                                    : 1 436 pixels \r\nHeight                                   : 1 070 pixels \r\nDisplay aspect ratio                     : 4:3 \r\nFrame rate mode                          : Constant \r\nFrame rate                               : 23.976 (24000/1001) FPS \r\nColor space                              : YUV \r\nChroma subsampling                       : 4:2:0 \r\nBit depth                                : 8 bits \r\nScan type                                : Progressive \r\nBits/(Pixel*Frame)                       : 0.031 \r\nStream size                              : 190 MiB (86%) \r\n\r\nAudio \r\nID                                       : 2 \r\nFormat                                   : AAC \r\nFormat/Info                              : Advanced Audio Codec \r\nFormat profile                           : LC \r\nCodec ID                                 : A_AAC \r\nDuration                                 : 22 min 49 s \r\nBit rate                                 : 192 kb/s \r\nChannel(s)                               : 2 channels \r\nChannel positions                        : Front: L R \r\nSampling rate                            : 44.1 kHz \r\nFrame rate                               : 43.066 FPS (1024 spf) \r\nCompression mode                         : Lossy \r\nStream size                              : 31.3 MiB (14%) \r\nLanguage                                 : English \r\n <a href=\"\nhttp://i.imgur.com/CqskJU0.png\" rel=\"nofollow\" target=\"_NEW\">\nhttp://i.imgur.com/CqskJU0.png</a>  <a href=\"\nhttp://i.imgur.com/MzxRycl.png\" rel=\"nofollow\" target=\"_NEW\">\nhttp://i.imgur.com/MzxRycl.png</a>  <a href=\"\nhttp://i.imgur.com/jD5o7kQ.jpg\" rel=\"nofollow\" target=\"_NEW\">\nhttp://i.imgur.com/jD5o7kQ.jpg</a> \r\n\r\n================================================================ \r\nSeed Seed Seed Seed Seed Seed Seed Seed Seed Seed Seed Seed Seed \r\nTo direct download or Watch Online this file, Visit. \r\nwww.DigiMaza.com \r\nSeed Seed Seed Seed Seed Seed Seed Seed Seed Seed Seed Seed Seed \r\n================================================================","last_updated":"2017-06-05T12:01:35.982Z","parsed":{"xt":"urn:btih:6de2e62a725bd5f532742454613672dbd6050eaf","dn":"Full Metal Panic! Complete Season 1 (EngDub) 720p x264 Download","tr":["udp://exodus.desync.com:6969","udp://open.demonii.com:1337","udp://tracker.coppersurfer.tk:6969","udp://tracker.leechers-paradise.org:6969","udp://zer0day.ch:1337"],"infoHash":"6de2e62a725bd5f532742454613672dbd6050eaf","infoHashBuffer":{"type":"Buffer","data":[109,226,230,42,114,91,213,245,50,116,36,84,97,54,114,219,214,5,14,175]},"name":"Full Metal Panic! Complete Season 1 (EngDub) 720p x264 Download","announce":["udp://exodus.desync.com:6969","udp://open.demonii.com:1337","udp://tracker.coppersurfer.tk:6969","udp://tracker.leechers-paradise.org:6969","udp://zer0day.ch:1337"],"urlList":[]}}